<?xml version="1.0" encoding="utf-8"?>
<!DOCTYPE svg PUBLIC "-//W3C//DTD SVG 1.1//EN" "http://www.w3.org/Graphics/SVG/1.1/DTD/svg11.dtd">
<svg version="1.1" 
xmlns="http://www.w3.org/2000/svg" 
xmlns:xlink="http://www.w3.org/1999/xlink" 
xml:space="preserve" viewBox="0 0 300 40" width="300px" height="40px">
	<defs>
		<linearGradient id="standColor" x1="0" y1="0" x2="100%" y2="0">
			<stop offset="0%" style="stop-color:rgb(156,82,138); stop-opacity:1" />
			<stop offset="100%" style="stop-color:#593e53; stop-opacity:1" />
		</linearGradient>
   </defs>
	<g>
		<path d="M5,10 C5,0 55,0 55,10 C55,15 5,15 5,10" stroke-width="1" stroke="#000"  fill="#42aaff" stroke-linejoin="round" id="stand" />
		<path d="M5,10 C5,15 55,15 55,10 L55,25 C55,30 48,30 48,25 L12,25 C12,30 5,30 5,25 L5,10" stroke-width="1" stroke="#000" fill="url(#standColor)" stroke-linejoin="round" />
	</g>
	<g>
		<path d="M65,10 C65,0 115,0 115,10 C115,15 65,15 65,10" stroke-width="1" stroke="#000"  fill="#bd42ff" stroke-linejoin="round" id="stand" />
		<path d="M65,10 C65,15 115,15 115,10 L115,25 C115,30 108,30 108,25 L72,25 C72,30 65,30 65,25 L65,10" stroke-width="1" stroke="#000" fill="url(#standColor)" stroke-linejoin="round" />
	</g>
	<g>
		<path d="M125,10 C125,0 175,0 175,10 C175,15 125,15 125,10" stroke-width="1" stroke="#000"  fill="#42ff49" stroke-linejoin="round" id="stand" />
		<path d="M125,10 C125,15 175,15 175,10 L175,25 C175,30 168,30 168,25 L132,25 C132,30 125,30 125,25 L125,10" stroke-width="1" stroke="#000" fill="url(#standColor)" stroke-linejoin="round" />
	</g>
	<g>
		<path d="M185,10 C185,0 235,0 235,10 C235,15 185,15 185,10" stroke-width="1" stroke="#000"  fill="#ffc642" stroke-linejoin="round" id="stand" />
		<path d="M185,10 C185,15 235,15 235,10 L235,25 C235,30 228,30 228,25 L192,25 C192,30 185,30 185,25 L185,10" stroke-width="1" stroke="#000" fill="url(#standColor)" stroke-linejoin="round" />
	</g>
	<g>
		<path d="M245,10 C245,0 295,0 295,10 C295,15 245,15 245,10" stroke-width="1" stroke="#000"  fill="#ff4268" stroke-linejoin="round" id="stand" />
		<path d="M245,10 C245,15 295,15 295,10 L295,25 C295,30 288,30 288,25 L252,25 C252,30 245,30 245,25 L245,10" stroke-width="1" stroke="#000" fill="url(#standColor)" stroke-linejoin="round" />
	</g>
</svg>